<svg width="2772" height="2364" viewBox="0 0 2772 2364" fill="none" xmlns="http://www.w3.org/2000/svg">
<path d="M1539 0L1530.17 78L1511.83 248L1506 302L1572 309L1586 177L1633 182L1619 314L1686 322L1694.83 242L1712.17 82L1719 20L1652 13L1639 135L1592 130C1597.06 89.939 1605 47.371 1605 7L1539 0Z" fill="#5055AE"/>
<path fill-rule="evenodd" clip-rule="evenodd" d="M1342 313L1279 319C1281.36 264.09 1287.26 208.809 1293.13 153.793C1295.44 132.141 1297.75 110.531 1299.83 89.0001C1300.37 83.3951 1301 77.7547 1301.62 72.0985C1303.06 59.0697 1304.52 45.9571 1304.99 33.0001C1305.02 32.2344 1305.02 31.2645 1305.03 30.162C1305.05 24.3479 1305.09 14.8481 1308.59 12.1791C1311.31 10.1004 1316.8 10.0521 1321.21 10.0134C1322.63 10.0009 1323.93 9.9894 1325 9.91113C1330.98 9.47293 1336.94 8.78241 1342.9 8.0918C1350.58 7.20166 1358.27 6.31138 1366 5.96113C1367.19 5.90728 1368.82 5.57391 1370.62 5.20616C1375.11 4.29002 1380.65 3.16046 1382.91 5.60713C1385.96 8.90521 1387.4 15.932 1388.6 21.8488C1389.08 24.1665 1389.51 26.3139 1390 28.0001C1391.6 33.5462 1393.2 39.0908 1394.81 44.6353C1398.69 58.0863 1402.58 71.536 1406.42 85.0001C1413.46 109.684 1420.62 134.333 1427.78 158.98C1435.04 183.976 1442.3 208.971 1449.43 234C1451.34 240.698 1453.7 247.626 1456.11 254.662C1461.35 270.006 1466.77 285.867 1468 301L1428 304.424L1408.3 305.396L1402.63 290L1391 244L1346 248L1342 313ZM1349 207L1353 91C1358.24 99.6864 1360.27 112.562 1362.12 124.232C1362.83 128.777 1363.52 133.14 1364.36 137C1366.04 144.71 1368.34 152.611 1370.67 160.591C1374.98 175.357 1379.36 190.396 1380 205L1349 207Z" fill="#5055AE"/>
<path fill-rule="evenodd" clip-rule="evenodd" d="M1014.03 156.695C1007.93 133.537 1001.82 110.38 997 87L1087 57L1132 43C1135.41 57.8779 1140.62 72.5727 1145.79 87.144C1147.91 93.1153 1150.02 99.066 1152 105L1189 216C1191.17 222.518 1193.87 229.352 1196.63 236.341C1202.97 252.402 1209.63 269.278 1211 285C1216.7 283.683 1222.28 281.732 1227.83 279.791C1229.89 279.071 1231.94 278.352 1234 277.667C1234.5 277.5 1235.05 277.288 1235.64 277.062C1238.18 276.086 1241.34 274.872 1243.58 276.121C1247.65 278.395 1249.86 287.78 1251.57 295.048C1252.23 297.861 1252.82 300.357 1253.41 302C1255.01 306.454 1256.66 310.951 1258.32 315.479C1266.41 337.597 1274.79 360.481 1280 383C1273.2 384.422 1266.53 386.803 1259.89 389.17C1256.59 390.348 1253.3 391.524 1250 392.576C1249.3 392.799 1248.48 393.132 1247.59 393.49C1244.59 394.702 1240.84 396.219 1238.42 394.879C1235.79 393.426 1234.51 389.188 1233.48 385.77C1233.17 384.739 1232.88 383.783 1232.58 383C1228.56 372.436 1224.37 361.942 1220.18 351.443L1220 351C1219.66 350.141 1219.32 349.054 1218.94 347.866C1217.58 343.514 1215.78 337.799 1211.9 336.929C1209.21 336.326 1205.7 337.751 1202.7 338.963C1201.73 339.357 1200.81 339.728 1200 340L1173 349C1167.32 350.895 1161.63 352.793 1155.95 354.691C1128.33 363.913 1100.72 373.137 1073 382L1090 446L1046 460C1040.6 443.406 1035.04 426.86 1029.48 410.316C1026.65 401.879 1023.81 393.443 1021 385C1020.24 382.722 1019.04 379.931 1017.75 376.908C1014.48 369.295 1010.58 360.22 1011.5 354.214C1011.9 351.606 1016.35 348.323 1020.74 345.089C1024.14 342.585 1027.49 340.11 1028.9 338C1038.08 324.208 1041.03 304.275 1039.91 288C1036.85 243.25 1025.44 199.97 1014.03 156.695ZM1075.43 176.23C1069.42 156.182 1063.43 136.182 1060 116C1061.27 115.661 1063.37 114.833 1065.87 113.85C1073.26 110.942 1084.1 106.672 1087.07 109.644C1088.98 111.559 1089.93 115.347 1090.74 118.614C1091.06 119.863 1091.35 121.037 1091.67 122L1101.67 152L1137.33 259C1140.99 269.975 1144.59 280.957 1148.03 292C1148.27 292.781 1148.68 293.756 1149.14 294.828C1150.49 298.039 1152.22 302.122 1150.87 304.49C1149.09 307.616 1142.25 309.298 1137.17 310.55C1135.52 310.956 1134.05 311.317 1133 311.667C1127.73 313.423 1122.35 315.466 1116.9 317.534C1104.41 322.272 1091.58 327.142 1079 329C1080.2 326.109 1081.45 323.295 1082.69 320.51C1087.05 310.675 1091.25 301.203 1092.71 290C1097.8 250.933 1086.59 213.5 1075.43 176.23Z" fill="#5055AE"/>
<path d="M2586 399C2579.95 393.229 2577.81 383.048 2573.04 376C2562.64 360.632 2550.01 346.605 2535 335.583C2521.15 325.413 2505.5 318.255 2490 311.117C2484.64 308.646 2474.26 307.859 2470.81 302.775C2466.8 296.859 2468.26 283.106 2467.08 276C2464.6 261.01 2458.12 246.187 2450.67 233C2414.68 169.315 2338.77 125.641 2267 116.289C2209.95 108.856 2152.41 110.96 2098 131.282C2084.29 136.401 2069.14 142.22 2057 150.425C2050.22 155.009 2037.88 166.814 2030 168.126C2026.15 168.768 2021.52 165.058 2018 163.799C2008.32 160.334 1998.2 157.045 1988 155.439C1951.47 149.686 1911.56 152.906 1879 171.862C1862.34 181.558 1848.01 194.539 1839.28 212C1835.22 220.126 1835.98 236.331 1828.7 242.157C1823.62 246.219 1814.93 247.073 1809 249.771C1795.33 255.992 1781.93 263.874 1770 273.04C1721.47 310.358 1705.35 371.628 1736.85 425.039C1762.45 468.443 1815.97 495.792 1864 504.905C1886.53 509.18 1910.21 508.992 1933 511.17C1954.7 513.244 1976.28 516.068 1998 518.17C2128.82 530.829 2260.18 538.669 2391 551.17C2458.55 557.625 2538.07 544.489 2577.44 482C2587.84 465.49 2591.68 440.308 2589.9 421C2589.23 413.791 2584.78 406.099 2586 399Z" fill="#5055AE"/>
<path d="M823 333H821L796 294L743 215L699 244C703.361 257.685 715.694 271.195 723.809 283C741.744 309.092 761.6 335.339 777 363L776 364C744.766 346.593 716.002 321.514 687 300.576L663 283.29C659.937 281.098 656.003 276.905 652 276.849C647.009 276.778 640.899 282.71 637 285.414C625.073 293.683 610.224 300.687 600 311C632.577 332.978 665.73 354.151 698 376.565C708.594 383.923 727.745 391.689 735.062 402.326C742.672 413.387 742.78 435.9 745.4 449C752.96 486.806 758.34 525.663 768 563C780.714 558.181 792.71 547.563 804 539.999C807.801 537.453 814.59 534.262 816.393 529.816C820.301 520.176 810.737 500.851 808.804 491C803.609 464.532 796.974 438.372 791.339 412C788.917 400.664 782.951 386.54 784 375H786C800.106 404.687 824.065 432.597 842.333 460C848.75 469.626 856.716 487.924 866.326 494.342C869.932 496.75 874.081 492.94 877 491C885.363 485.442 893.701 479.843 902 474.194C904.789 472.296 910.331 470.013 910.172 465.96C910.036 462.484 906.507 458.76 904.667 456L888.494 432C869.19 403.098 846.375 374.64 830 344C839.793 344.553 851.126 356.547 859 361.974C883.096 378.584 907.168 395.308 931 412.291C938.272 417.473 952.913 432.444 962 432.444C967.072 432.445 972.975 426.683 977 424C988.384 416.411 999.88 408.967 1011 401V399C977.835 380.605 946.564 357.033 915 336C903.337 328.228 882.599 319.462 874.603 307.907C867.767 298.03 868.953 279.521 865.911 268C855.818 229.77 847.07 188.262 842 149C828.306 154.19 815.03 165.782 803 174.116C799.295 176.683 792.289 179.705 790.643 184.184C787.559 192.579 796.213 212.357 798.373 221C804.929 247.224 811.498 273.58 817.21 300C819.399 310.127 825.244 322.675 823 333Z" fill="#5055AE"/>
<path d="M1312 375L1323.83 490L1349 735C1332.89 735.334 1314.91 743.115 1300 748.83C1272.51 759.372 1245.77 770.811 1221 787C1218.74 778.288 1210.48 770.131 1205.13 763C1193.8 747.895 1182.79 732.546 1171.29 717.576C1133.55 668.459 1098.02 617.556 1060.87 568C1048.44 551.416 1036.18 534.685 1023.88 518C1020.87 513.908 1015.49 502.606 1009.96 501.921C1005.24 501.336 1000.72 509.049 997.98 512C988.007 522.699 978.345 533.655 968 544C933.619 578.381 897.57 610.892 863 644.996C852.366 655.486 829.107 669.369 825 684L903 744.789L1035 848.211L1099 898V899C1087.87 908.2 1080.16 924.71 1072.8 937C1058.22 961.37 1046.7 987.3 1037.2 1014C1031.88 1028.96 1025.31 1045.01 1024 1061L843 1031.73L734 1014L741.911 1112L747 1270L833 1261.83L1020 1244C1022.45 1274.03 1035.16 1307.7 1047.38 1335C1052.92 1347.38 1060.63 1359.17 1065 1372C1049.93 1378.34 1036.19 1392.23 1023 1401.85C993.58 1423.31 964.133 1444.78 935 1466.63C924.41 1474.57 913.694 1482.35 903 1490.15C899.582 1492.64 892.77 1496.06 891.176 1500.17C889.489 1504.52 896.431 1508.58 899 1511.04C908.411 1520.04 918.1 1529.23 926.714 1539C957.075 1573.43 983.558 1610.81 1012.92 1646C1019.99 1654.47 1027.35 1662.67 1034.58 1671C1037.11 1673.93 1040.79 1679.58 1045 1680.08C1049.2 1680.57 1053.41 1674.59 1056 1672C1065.52 1662.49 1074.49 1652.51 1084 1643C1112.5 1614.5 1139.25 1584.22 1168 1555.99C1177.17 1546.99 1187.76 1529.07 1199.71 1524.03C1202.54 1522.84 1205.79 1526 1208 1527.41C1215.28 1532.07 1222.4 1536.97 1230 1541.11C1256.77 1555.71 1288.28 1575.03 1319 1579L1294.67 1680L1284 1728L1494 1733L1486 1598C1526.62 1597.66 1574.06 1586.18 1611 1569.63C1620.15 1565.53 1637.72 1562.38 1644.26 1554.57C1646.81 1551.52 1646.6 1545.77 1647.13 1542C1648.38 1533 1649.86 1524.02 1651 1515L1356 1506C1356 1425.67 1350.65 1347.67 1324.33 1271C1311.75 1234.37 1294.12 1201.04 1276 1167C1288.49 1161.09 1299.89 1151.06 1311 1142.88C1331.57 1127.75 1351.81 1112.28 1372 1096.65C1452.28 1034.51 1528.32 964.64 1596.46 889.424C1618.23 865.381 1640.35 841.729 1661.42 817C1666.46 811.084 1682.06 798.1 1682.25 790.104C1682.33 786.571 1677.5 784.859 1675 783.432C1667.46 779.134 1659.88 774.54 1652 770.92C1625.66 758.823 1599.29 746.137 1571 739.036C1565.13 737.562 1543.99 735.7 1541.64 729.772C1539.12 723.397 1543.11 710.763 1543.83 704C1546.15 682.341 1548.73 660.684 1550.83 639C1556.22 583.3 1562.6 527.687 1568.17 472C1571.07 442.964 1577 413.187 1577 384L1452 379.961L1312 375Z" fill="#DD6301"/>
<path fill-rule="evenodd" clip-rule="evenodd" d="M476 431.754C487.281 422.316 500.182 413.771 515 411.439C551.235 405.735 579.712 428.071 605 450.831C617.473 462.056 629.82 473.421 642.166 484.785C653.082 494.832 663.997 504.879 675 514.83C693.402 531.474 712.503 550.562 719.961 575C734.335 622.103 686.597 681.479 641 689.536C604.593 695.969 575.191 671.923 550 649.17C538.201 638.513 526.487 627.763 514.773 617.013C503.54 606.704 492.307 596.396 481 586.17C462.849 569.754 443.61 551.222 436.439 527C425.54 490.183 448.668 454.62 476 431.754ZM501.174 511C490.214 498.72 487.031 476.671 507 470.649C521.098 466.398 533.873 478.473 544.141 488.179C546.198 490.123 548.154 491.972 550 493.576C555.254 498.14 560.566 502.721 565.906 507.328C595.73 533.051 626.452 559.549 652.911 588C664.292 600.238 670.709 622.117 650 630.005C635.655 635.47 622.378 622.918 611.836 612.953C609.783 611.011 607.833 609.168 606 607.576C588.17 592.086 570.833 575.884 553.543 559.725C549.028 555.505 544.516 551.289 540 547.089C535.714 543.104 531.272 539.223 526.822 535.335C517.919 527.557 508.98 519.747 501.174 511Z" fill="#5055AE"/>
<path d="M352 586C334.732 612.097 318.57 639.206 302.399 666C295.619 677.234 284.008 690.192 281 703C369.187 751.912 449.988 814.615 539 862L587.811 783L611 745L572 721L536 781C517.045 768.457 497.255 757.127 478 745.05C474.135 742.626 460.492 736.987 460.421 731.896C460.363 727.721 465.328 722.432 467.399 719C473.58 708.758 480.93 698.847 486 688L446 664L420 708C396.312 701.03 378.202 678.494 355 670L391 610L352 586Z" fill="#5055AE"/>
<path d="M1369 1487L1655 1495C1655.03 1482.57 1658.46 1470.31 1659.83 1458C1663.8 1422.53 1670.24 1387.13 1676.58 1352C1694.22 1254.19 1716.04 1157.2 1744.72 1062C1754.63 1029.11 1765.17 996.36 1776.69 964C1782.95 946.43 1791.09 928.99 1796 911H1797C1800.01 931.1 1811.45 951.58 1817.66 971C1830.32 1010.64 1841.65 1050.59 1851.63 1091C1874.26 1182.72 1889.11 1277.13 1899.17 1371C1903.86 1414.79 1911.11 1459 1913 1503L2200 1511C2197.93 1490.25 2191.96 1470.06 2191.04 1449C2187.95 1378.49 2207.85 1309.71 2245.12 1250C2256.55 1231.67 2269.68 1207.25 2287 1194C2285.39 1188.27 2278.52 1184.67 2274 1181.2C2263.57 1173.19 2253.19 1165.1 2243.17 1156.58C2201.97 1121.55 2159.84 1087.83 2119.71 1051.49C2035.66 975.35 1959.11 892.499 1889.5 802.985C1868.25 775.658 1849.45 746.834 1830.3 718.039C1818.6 700.43 1805.94 682.241 1797 663C1786.76 665.856 1776.74 687.906 1770.91 696.565C1750.52 726.832 1728.55 757.22 1705 785.081C1619.9 885.741 1532.25 984.05 1427.99 1065.77C1395.06 1091.57 1361.91 1116.8 1328.09 1141.44C1319.61 1147.63 1310.93 1153.51 1302.33 1159.54C1299.72 1161.37 1294.49 1163.67 1293.91 1167.17C1292.85 1173.55 1303.87 1188.86 1306.69 1195C1317.93 1219.48 1327.48 1244.45 1336 1270C1359.35 1340.04 1369 1413.44 1369 1487Z" fill="#92B33A"/>
<path d="M2136 764C2138.02 767.687 2140.81 769.65 2145 770C2148.24 774.742 2155.66 775.657 2160.96 776.944C2175.36 780.443 2189.18 781.873 2204 780L2202 796C2184.1 793.202 2185.1 817.919 2183.08 830C2182.08 835.99 2179.52 842.498 2183.34 847.956C2188.84 855.788 2199.79 853.784 2208 856.18C2218.79 859.328 2237.14 869.056 2245 877L2247 876L2248 879L2268 889.833L2299 897.833L2369 909.33L2401 915L2436 910C2444.96 904.266 2468.41 901.847 2479 902.749C2486.18 903.361 2494.05 906.78 2500.96 903.276C2505.65 900.9 2506.42 896.69 2507.5 892C2509.85 881.74 2515.87 864.199 2511.66 854.04C2509.43 848.684 2502.54 849.364 2500.62 844.772C2498.83 840.506 2501.9 833.602 2502 829L2573 840C2567.4 830.127 2549.04 827.906 2539 825.404C2523.67 821.584 2509.79 826.636 2495 825.152C2471.26 822.77 2448 814.129 2424 813C2425.74 818.278 2432.71 821.638 2438 822C2440.79 825.456 2446.81 825.949 2451 827.024C2463.61 830.254 2479.29 832.767 2492 829L2490 845C2473.37 845.14 2472.18 861.427 2472 875L2439.01 880.725L2404 887C2396.96 861.274 2373.04 860.051 2351 855.905C2340.92 854.008 2330.31 851.368 2320 851.129C2315.54 851.026 2311.43 853.051 2307 853L2285 868L2266 855L2264 856L2225 832L2223 833C2220.08 820.273 2233.06 800.158 2212 798L2215 779C2237.07 785.98 2262.1 788.106 2285 791C2279.26 780.533 2260.55 778.259 2250 775.88C2235.16 772.536 2221.57 776.825 2207 775.674C2183.12 773.787 2160.14 765.037 2136 764Z" fill="#5055AE"/>
<path d="M240 778L203.551 867L187 908C249.407 932.21 311.269 958.52 373 984.42C403.773 997.34 435.834 1014.2 468 1023C477.01 1003.74 488.097 981.69 493 961L346 900.397L259 865L286 796L240 778Z" fill="#5055AE"/>
<path d="M2225 986L2282 935C2283.6 941.73 2288.14 958.2 2294.26 961.97C2298.22 964.41 2305.42 964.14 2310 965C2307.45 969.4 2305.47 973.86 2305.09 979C2302.28 1017.15 2365.35 1008.64 2352 972C2356.64 974.24 2366.69 976.99 2371.49 973.97C2378.39 969.63 2380.46 959.83 2388 956C2392.47 967.81 2400.32 978.82 2406.22 990C2410.83 998.74 2415.19 1010.2 2421.75 1017.61C2427.52 1024.12 2438.28 1023.77 2443.57 1016.96C2453.52 1004.12 2430.89 976.29 2424.43 965C2419.08 955.66 2413.76 937.63 2405.36 930.94C2398.78 925.69 2382.23 926.2 2374 924.91C2350.8 921.29 2326.91 918.28 2304 913.12C2296.2 911.36 2277.12 905.52 2270 909.03C2255.29 916.26 2242.14 932.99 2230 943.83C2222.77 950.29 2212.94 956.85 2207.59 965C2198.58 978.74 2214.24 985.43 2225 986Z" fill="#5055AE"/>
<path d="M1668 1496L1899 1502C1885.97 1398.94 1879.73 1295.44 1860.54 1193C1845.29 1111.63 1821.62 1034.6 1796 956C1787.89 958.63 1784.03 979.39 1781.31 987C1770.31 1017.8 1760.08 1048.79 1750.34 1080C1722.01 1170.78 1702.29 1264.35 1686.59 1358C1679.09 1402.73 1668 1450.56 1668 1496Z" fill="#5055AE"/>
<path d="M787 1808V1809C799.692 1808.99 812.331 1806.59 825 1806.04C878.134 1803.71 935.138 1802.1 987 1815.76C1075.4 1839.03 1154.05 1888.41 1241 1915.65C1297.59 1933.38 1355.2 1936.09 1414 1936C1537.88 1935.8 1644.59 1859.9 1759 1823.34C1810.98 1806.74 1866.65 1802.66 1921 1805.04C1942.25 1805.97 1963.74 1808.99 1985 1809C1971 1794.88 1947.86 1786.74 1930 1778.69C1871.92 1752.53 1803.22 1741.27 1740 1750.43C1645 1764.18 1557.84 1811.34 1465 1833.9C1434.39 1841.34 1399.69 1850.14 1368 1848.62C1341.81 1847.37 1315.7 1838.18 1291 1830.45C1252.06 1818.26 1213.45 1805.38 1175 1791.69C1128.35 1775.09 1080.29 1756.93 1031 1750.29C949.31 1739.28 854.354 1759.56 787 1808Z" fill="#92B33A"/>
<path d="M319 2035C353.327 2027.06 386.51 2013.06 421 2004.88C486.085 1989.45 551.535 1980.16 618 1973.83C675.612 1968.34 734.978 1968.05 792 1979.45C986.109 2018.27 1155.74 2148.03 1358 2152.99C1417.03 2154.43 1476.66 2151.19 1534 2136.12C1610.68 2115.96 1685 2086.21 1758 2055.58C1832.1 2024.48 1906.49 1992.77 1986 1978.42C2097.88 1958.25 2217.86 1975.98 2328 1999.51C2355.21 2005.32 2382.38 2012.66 2409 2020.77C2423.77 2025.27 2438.7 2032.75 2454 2035C2443.09 2023.99 2426.25 2016.73 2413 2008.8C2378.58 1988.19 2342.45 1970.38 2306 1953.69C2209.76 1909.62 2095.28 1872.11 1988 1885.29C1772.86 1911.71 1591.85 2066.62 1371 2064C1306.68 2063.23 1241.94 2043.96 1182 2022.05C1097.81 1991.29 1016.47 1953.37 932 1923.31C878.698 1904.34 822.656 1887.97 766 1884.09C647.179 1875.95 530.811 1922.52 426.001 1972.74C398.594 1985.87 371.076 1999.97 345.428 2016.34C336.985 2021.73 324.577 2026.44 319 2035Z" fill="#92B33A"/>
<path d="M0 2281C147.468 2239.15 297.246 2205.61 450 2190.83C547.879 2181.36 647.749 2179.57 745 2196.61C830.379 2211.57 912.87 2237.14 994 2267.16C1069.14 2294.96 1143.71 2327.53 1222 2345.5C1280.63 2358.95 1338.34 2362.71 1398 2363C1539.27 2363.68 1666.67 2307.72 1797 2260.05C1868.39 2233.94 1941.23 2212.45 2016 2198.46C2111.77 2180.55 2210.39 2180.63 2307 2189.83C2464.98 2204.87 2619.37 2237.69 2772 2281C2768.65 2274.55 2759.26 2271.88 2753 2268.75C2735.79 2260.15 2718.5 2251.75 2701 2243.77C2630.63 2211.67 2558.66 2183.28 2485 2159.66C2295.88 2099 2097.77 2072.53 1903 2122.38C1778.54 2154.23 1665.18 2216.41 1542 2251.22C1491.24 2265.56 1440.14 2266.55 1388 2267.18C1367.95 2267.41 1347.04 2269.69 1327.09 2267.65C1292.33 2264.1 1257.9 2259 1224 2249.58C1132.66 2224.19 1047.42 2180.39 958 2149.34C843.165 2109.48 723.346 2090.73 602 2096.04C442.955 2103 287.77 2154.96 141 2212.74C104.812 2226.99 68.5333 2243.16 34 2260.92C25.3247 2265.38 3.6124 2271.71 0 2281Z" fill="#92B33A"/>
</svg>
